<?xml version="1.0" encoding="UTF-8"?>
<svg version="1.1" viewBox="0 0 1e3 1e3" xmlns="http://www.w3.org/2000/svg">
<path d="m272.3 60c-0.1 0-0.1 0-0.2 0.1-0.4 0.1-0.9 0.3-1.2 0.6l-46.1 42.9c-0.3 0.2-0.4 0.5-0.6 0.9l-12.9 35.2c-0.1 0.3-0.1 0.7-0.1 1l4.9 41.7 1.3 10.7-30.2 82.2c-31 44.5-52.3 94.9-62.7 147.9l-8-46.1 9.5-30.8 6.1-20.2c0.1-0.3 0.2-0.6 0.1-1l-6.4-37c0-0.3-0.2-0.7-0.4-1l-12.6-16.8-12.5-16.9-12.6-16.9c-0.5-0.7-1.4-1-2.2-0.9-0.3 0-0.5 0.1-0.8 0.3-0.1 0-0.1 0.1-0.2 0.2-0.3 0.3-0.6 0.7-0.7 1.1l-6.1 20.1-6.2 20.1-6.1 20.1c-0.1 0.3-0.1 0.7-0.1 1.1l6.4 36.9c0.1 0.3 0.2 0.7 0.4 1l12.5 16.8 12.5 16.9 6.4 8.6 15 86.5c-0.9 10.9-1.4 21.8-1.4 32.8 0 44.2 7.4 86.7 21 126.4l-29.9-35.9-2.5-11-4.7-20.5-4.8-20.5c-0.1-0.3-0.2-0.7-0.4-0.9l-24.1-28.8c-0.2-0.3-0.5-0.5-0.8-0.6l-57.9-24.9c-1-0.5-2.4 0-2.9 1 0 0.1 0 0.1-0.1 0.2-0.2 0.4-0.2 0.9-0.1 1.3l14.1 61.5c0.1 0.3 0.2 0.7 0.5 0.9l24 28.8c0.2 0.3 0.5 0.4 0.8 0.6l38.7 16.6 9.9 4.2 56.2 67.4c23.2 49.2 56.4 92.8 96.9 128.2l-44.2-16.2-7.7-8.2-14.3-15.4-14.4-15.4c-0.2-0.2-0.5-0.4-0.8-0.6l-35.2-12.9c-0.3-0.1-0.7-0.2-1-0.2l-20.9 2.5-41.7 4.9c-1.1 0.1-2 1.2-2 2.3 0 0.1 0 0.1 0.1 0.2 0.1 0.4 0.3 0.9 0.6 1.2l42.9 46.1c0.2 0.3 0.5 0.4 0.9 0.6l35.2 12.9c0.3 0.1 0.7 0.2 1 0.1l52.4-6.1 82.7 30.4c43.5 30.3 93.6 51.9 147.5 62.4l-46.3 8-51-15.6c-0.3-0.1-0.6-0.2-1-0.1l-37 6.4c-0.3 0-0.7 0.2-1 0.4l-16.9 12.6-33.7 25.1c-0.9 0.6-1.2 2-0.6 2.9 0 0.1 0.1 0.1 0.2 0.2 0.3 0.3 0.7 0.6 1.1 0.7l20.1 6.1 20.1 6.2 20.1 6.1c0.3 0.1 0.7 0.1 1 0.1l37-6.3c0.3-0.1 0.6-0.2 0.9-0.5l42.3-31.5 86.8-15c6.2 0.5 12.3 0.8 18.6 1.1v0.2c2.3 0 4.7-0.1 7-0.1s4.7 0.1 7 0.1v-0.2c6.2-0.2 12.4-0.6 18.6-1.1l86.8 15 8.6 6.4 33.7 25.1c0.3 0.2 0.6 0.4 0.9 0.5l37 6.3c0.3 0.1 0.7 0 1-0.1l20.1-6.1 20.1-6.2 20.1-6.1c0.4-0.1 0.8-0.4 1.1-0.7 0.1 0 0.1-0.1 0.2-0.2 0.6-0.9 0.3-2.3-0.6-2.9l-33.7-25.1-16.7-12.5c-0.3-0.2-0.6-0.4-1-0.4l-37-6.4c-0.3 0-0.6 0-1 0.1l-51 15.6-46.3-8c54-10.5 104-32.1 147.5-62.4l82.7-30.4 10.7 1.3 41.7 4.9c0.3 0 0.7 0 1-0.1l35.2-12.9c0.3-0.1 0.6-0.3 0.9-0.6l42.9-46.1c0.3-0.3 0.5-0.7 0.6-1.2 0-0.1 0-0.1 0.1-0.2 0.1-1.1-0.9-2.2-2-2.3l-62.6-7.4c-0.3 0-0.7 0-1 0.2l-35.2 12.9c-0.3 0.1-0.6 0.3-0.8 0.6l-14.4 15.4-22 23.6-44.2 16.2c40.6-35.3 73.7-79 96.9-128.2l56.2-67.4 9.9-4.2 38.6-16.6c0.3-0.1 0.6-0.3 0.8-0.6l24-28.8c0.2-0.3 0.4-0.6 0.5-0.9l14.1-61.5c0.1-0.4 0.1-0.9-0.1-1.3 0-0.1 0-0.1-0.1-0.2-0.5-1-1.9-1.4-2.9-1l-19.2 8.3-38.6 16.6c-0.3 0.1-0.6 0.3-0.8 0.6l-24.1 28.8c-0.2 0.3-0.3 0.6-0.4 0.9l-4.8 20.5-4.7 20.5-2.5 11-30 35.9c13.6-39.6 21-82.1 21-126.4 0-11-0.5-21.9-1.4-32.8l15-86.5 6.4-8.6 12.5-16.9 12.5-16.8c0.2-0.3 0.3-0.6 0.4-1l6.4-36.9c0.1-0.3 0-0.7-0.1-1.1l-6.1-20.1-6.2-20.1-6.1-20.1c-0.1-0.4-0.4-0.8-0.7-1.1 0-0.1-0.1-0.1-0.2-0.2-0.2-0.2-0.5-0.2-0.8-0.3-0.8-0.1-1.7 0.2-2.2 0.9l-12.6 16.9-12.5 16.9-12.6 16.8c-0.2 0.3-0.3 0.6-0.4 1l-6.4 37c0 0.3 0 0.6 0.1 1l6.1 20.2 9.5 30.8-8 46.1c-10.4-53-31.7-103.3-62.7-147.9l-30.2-82.2 1.3-10.7 4.9-41.7c0-0.3 0-0.7-0.1-1l-12.9-35.2c-0.1-0.3-0.3-0.6-0.6-0.9l-46.1-42.9c-0.3-0.3-0.7-0.5-1.2-0.6-0.1 0-0.1 0-0.2-0.1-1.1-0.1-2.2 0.9-2.3 2l-4.9 41.7-2.5 20.9c0 0.3 0 0.7 0.2 1l12.9 35.2c0.1 0.3 0.3 0.6 0.6 0.8l15.4 14.4 23.6 22 21 57.3-3.1 2.6-104.9-87.5-1.5-3.6-16.7-38.6-28.8-24-44.4-10.5-0.6-0.5-0.3 0.3-15.9-3.7 6.4 15.1-0.7 0.8 1.6 1.3 0.9 2.1 16.6 38.6 28.8 24 43.2 9.9 106.1 88.5c12.5 15.7 23.7 32.3 33.4 49.7l-84.1-38.9-1.1-1.4-25.7-32.6-33-15.3-20.5 0.8-21 0.7-16.7 0.6 23.4 29.6 12.6 16.1 33.1 15.3 20.5-0.8 23.9-0.8 98.4 45.5c23.8 49.3 36.4 103.6 36.4 159.1 0 1.7 0 3.4-0.1 5.1l-53.3-75.5-0.3-1.8-3-20.8-2.9-20.3-20.6-29.6-18.2-9.6-18.5-9.9-14.8-7.8 2.4 16.5 3.1 20.8 2.9 20.3 21 29.8 18.2 9.6 18.5 9.8 2.6 1.4 62.3 88.5c-4.2 58.5-22.1 113.1-50.5 160.7l-8.4-92.2 0.7-1.7 15.4-38.5-3.2-36.2-22.1-35.2-8.8-14.2-6.2 15.5-7.8 19.6-7.6 19 3.3 36.3 10.9 17.4 12.6 20.3 9.7 107.9c-31.9 46.9-74.4 86-124.1 113.8l38.9-84 1.4-1.1 32.6-25.7 15.3-33-0.8-20.5-0.7-21-0.6-16.7-29.6 23.4-16.1 12.6-15.3 33.1 0.8 20.5 0.7 21 0.1 2.9-45.5 98.4c-37.1 18-77.7 29.9-120.5 34.4l-20.5-14.4 52.2-36.8 1.8-0.2 41.1-5.9 29.8-21 9.6-18.2 9.9-18.5 7.8-14.8-37.4 5.5-20.3 2.9-29.8 21-9.6 18.2-9.9 18.5-1.4 2.6-54.9 38.6-55.2-38.9-1.4-2.6-9.9-18.5-9.6-18.2-29.8-21-20.3-2.9-37.4-5.5 7.8 14.8 9.9 18.5 9.6 18.2 29.8 21 42.9 6.2 52.2 36.8-20.5 14.4c-42.8-4.5-83.4-16.4-120.5-34.4l-45.5-98.4 0.1-2.9 0.7-21 0.8-20.5-15.3-33.1-16.1-12.6-29.6-23.4-0.6 16.7-0.7 21-0.8 20.5 15.3 33 34 26.8 38.9 84c-49.7-27.8-92.2-66.9-124.1-113.8l9.7-107.9 1.6-2.5 11.1-17.8 10.9-17.4 3.3-36.3-7.6-19-7.8-19.6-6.2-15.5-8.8 14.2-21.9 35.4-3.2 36.2 15.4 38.5 0.7 1.7-8.4 92.2c-28.5-47.5-46.4-102.1-50.5-160.6l62.3-88.5 2.6-1.4 18.5-9.8 18.2-9.6 21-29.8 2.9-20.3 3.1-20.8 2.4-16.5-14.8 7.8-18.5 9.9-18.2 9.6-20.9 29.8-2.9 20.3-3 20.8-0.3 1.8-53.3 75.5c0-1.7-0.1-3.4-0.1-5.1 0-55.5 12.6-109.8 36.4-159.1l98.4-45.5 23.9 0.8 20.5 0.8 33.1-15.3 12.6-16.1 23.4-29.6-16.7-0.6-21-0.7-20.5-0.8-33 15.3-26.8 34-84.1 38.9c9.7-17.4 20.9-34 33.4-49.7l106.1-88.5 2.2-0.5 41-9.4 28.8-24 16.6-38.6 0.9-2.1 1.6-1.3-0.7-0.8 6.4-15.1-15.9 3.7-0.3-0.3-0.6 0.5-3.7 0.9-41 9.4-28.8 24-16.7 38.6-1.5 3.6-104.9 87.5-3.1-2.6 21-57.3 39-36.3c0.2-0.2 0.4-0.5 0.6-0.8l12.9-35.2c0.1-0.3 0.2-0.7 0.2-1l-2.5-20.9-4.7-42.1c-0.1-1.1-1.1-2-2.2-2zm227.7 794.6 11.4 8c-3.8 0.2-7.6 0.3-11.4 0.4-3.8-0.1-7.6-0.2-11.4-0.4l11.4-8z" fill="#fffee5"/>
</svg>
