<?xml version="1.0" encoding="utf-8"?>
<svg viewBox="0 0 500 92.355" version="1.1" id="svg10" xmlns="http://www.w3.org/2000/svg">
  <defs id="defs14">
    <linearGradient gradientUnits="userSpaceOnUse" x1="249.08" y1="1.221" x2="249.08" y2="61.398" id="gradient-0">
      <stop offset="0" style="stop-color: rgba(0, 150, 135, 1)" id="stop10"/>
      <stop offset="1" style="stop-color: rgba(0, 48, 43, 1)" id="stop12"/>
    </linearGradient>
  </defs>
  <path id="path22" style="fill:url(#gradient-0);fill-opacity:1;stroke-width:11.5843;stroke-linejoin:bevel" d="M -3.996,39.674 C 8.273617,49.160161 35.005192,56.203995 82.221078,55.342874 129.43696,54.481753 207.42049,40.875492 276.53351,31.064139 345.64653,21.252786 456.00551,7.1441756 497.588,1.283 c 41.58249,-5.8611756 58.59922,9.526128 22.4,11.065 C 483.78878,13.886872 395.42397,17.664198 328.57509,26.666859 261.72621,35.66952 174.3037,56.887679 121.88359,61.404474 69.463477,65.92127 40.62983,63.238679 15.79525,56.147125 -9.0393296,49.055571 -17.563513,36.527873 -20.827733,32.373831 -24.091952,28.219789 -16.265617,30.187839 -3.996,39.674 Z"/>
  <path id="path24" style="fill:#0c92d6;fill-opacity:1;stroke-width:11.5843;stroke-linejoin:bevel" d="M -17.566 96.408 L 511.464 93.956 L 512.077 14.16 C 469.043 16.127 424.67 19.39 371.361 23.79 C 318.053 28.19 214.33 47.844 158.734 58.537 C 103.138 69.23 57.993 65.275 27.883 60.798 C -2.227 56.321 -7.734 44.147 -18.596 43.062 L -17.566 96.408 Z"/>
</svg>