<?xml version="1.0" encoding="UTF-8"?>
<svg viewBox="27.318 120.08 598.65 158.05" xmlns="http://www.w3.org/2000/svg">
<g transform="matrix(1 0 0 .64549 0 44.076)" fill="#ffe435" fill-rule="evenodd">
<path transform="matrix(.000253 -.64549 1.5492 -.000456 -186.25 431)" d="m260.84 329.14c-92.581-21.534-94.129-32.561-72.333-40.61 30.779 12.081 78.822 25.61 149.69 40.445l0.526 0.012c-68.728-15.985-114.22-30.361-142.37-42.991 14.469-4.156 33.853-7.643 46.617-11.749 164.87-34.369 77.855-54.547 29.965-52.135-76.999-2.666-195.56 21.659-87.031 65.371-27.575 8.149-33.108 20.313 74.676 41.657l-1.148-0.461 1.411 0.461zm-64.882-43.509c-88.674-40.629 2.804-62.991 74.312-62.788-0.239 0.02-0.486 0.04-0.723 0.061 0.318-0.02 0.648-0.03 0.969-0.049 6.418 0.023 12.655 0.218 18.602 0.609-4.121-0.37-8.443-0.647-12.92-0.829 46.143-0.827 113.92 18.256-32.067 52.073l-48.173 10.923zm93.16-62.167c0.463 0.041 0.921 0.079 1.379 0.123h0.526c-0.628-0.046-1.271-0.082-1.905-0.123zm-19.571-0.56c-0.328 0.022-0.661 0.038-0.985 0.062h0.246c0.242-0.023 0.494-0.04 0.739-0.062z"/>
<path transform="matrix(.000253 -.64549 1.5492 -.000456 107.36 459.86)" d="m387.38 139.3c103.07 22.456 104.8 33.954 80.537 42.347-34.268-12.599-87.758-26.707-166.66-42.177l-0.585-0.013c76.516 16.67 127.16 31.661 158.51 44.833-16.106 4.333-37.685 7.968-51.893 12.25-183.54 35.836-86.659 56.878-33.345 54.363 85.722 2.782 217.71-22.581 96.871-68.164 30.696-8.497 35.279-20.219-83.147-43.439h-0.292zm73.814 45.851c98.73 42.368-3.104 65.685-82.711 65.471 0.266-0.02 0.541-0.042 0.804-0.064-0.354 0.022-0.721 0.032-1.079 0.051-7.145-0.024-14.088-0.227-20.709-0.634 4.588 0.385 9.399 0.674 14.383 0.864-51.369 0.861-126.83-19.039 35.685-54.299 13.595-3.902 35.791-7.324 53.627-11.389zm-103.7 64.824c-0.515-0.044-1.026-0.083-1.535-0.129h-0.585c0.698 0.048 1.414 0.085 2.12 0.129zm21.788 0.583c0.366-0.022 0.736-0.039 1.097-0.064h-0.274c-0.269 0.024-0.551 0.041-0.823 0.064z"/>
<path transform="matrix(.000253 -.64549 1.5492 -.000456 -123.91 314.59)" d="m157.93 292.58c106.21-38.229 108.11-57.839 83.263-72.171-35.368 21.464-90.512 45.489-171.79 71.82l-0.602 0.021c78.845-28.379 131.08-53.912 163.45-76.355-16.509-7.402-38.653-13.618-53.211-20.931-188.28-61.249-88.456-97.072-33.677-92.745 88.155-4.685 223.56 38.667 98.83 116.33 31.461 14.515 36.043 34.511-85.958 74.032h-0.301zm76.39-78.152c101.96-72.194-2.463-112.03-84.302-111.73 0.273 0.035 0.556 0.072 0.826 0.109-0.364-0.036-0.74-0.054-1.108-0.087-7.346 0.036-14.486 0.378-21.297 1.067 4.721-0.654 9.67-1.143 14.796-1.463-52.798-1.506-130.59 32.383 36.082 92.636 13.933 6.665 36.713 12.518 55.003 19.464zm-105.88-110.64c-0.53 0.074-1.055 0.141-1.579 0.219h-0.602c0.719-0.081 1.455-0.145 2.181-0.219zm22.405-0.98c0.376 0.039 0.756 0.068 1.127 0.11h-0.282c-0.276-0.041-0.565-0.071-0.845-0.11z"/>
<path transform="matrix(.000253 -.64549 1.5492 -.000456 37.713 586.2)" d="m496.64 185.47c-106.21 38.229-108.11 57.839-83.263 72.171 35.368-21.464 90.512-45.489 171.8-71.82l0.601-0.021c-78.845 28.379-131.08 53.912-163.45 76.355 16.51 7.402 38.653 13.618 53.212 20.931 188.28 61.249 88.456 97.072 33.676 92.745-88.154 4.685-223.56-38.667-98.829-116.33-31.462-14.515-36.044-34.511 85.957-74.032h0.301zm-76.39 78.152c-101.96 72.194 2.463 112.03 84.303 111.73-0.274-0.035-0.556-0.072-0.827-0.109 0.364 0.036 0.741 0.054 1.109 0.087 7.345-0.036 14.486-0.378 21.296-1.067-4.721 0.654-9.67 1.143-14.796 1.463 52.799 1.506 130.59-32.383-36.082-92.636-13.933-6.665-36.712-12.518-55.003-19.464zm105.88 110.64c0.53-0.074 1.055-0.141 1.58-0.219h0.601c-0.718 0.081-1.455 0.145-2.181 0.219zm-22.405 0.98c-0.375-0.039-0.756-0.068-1.127-0.11h0.282c0.276 0.041 0.565 0.071 0.845 0.11z"/>
</g>
</svg>
