<?xml version="1.0" encoding="utf-8"?>
<svg width="2500" height="2500" viewBox="0 0 256 256" preserveAspectRatio="xMinYMin meet" xmlns="http://www.w3.org/2000/svg">
  <g transform="matrix(0.965512, 0, 0, 0.965512, 4.415424, 49.638378)" style="">
    <path d="M 94.874 94.391 L 85.336 84.853 L 85.376 153.796 L 85.49 157.019 C 85.537 158.535 85.819 160.246 86.288 162.019 L 161.863 188.668 L 180.754 180.298 L 180.761 180.275 L 94.874 94.391" fill="#00D2B8" style=""/>
    <path d="M 86.288 162.019 L 86.293 162.023 C 86.288 161.992 86.272 161.958 86.272 161.925 C 86.272 161.958 86.276 161.988 86.288 162.019 Z M 180.754 180.298 L 161.863 188.668 L 86.293 162.023 C 87.736 167.562 90.932 173.787 94.371 177.192 L 119.034 201.714 L 173.871 201.786 L 180.761 180.275 L 180.754 180.298 Z" fill="#55DDCA" style=""/>
    <path d="M 55.963 129.22 C 53.521 131.827 54.734 137.204 58.666 141.165 L 75.624 158.264 L 86.288 162.019 C 85.819 160.246 85.537 158.535 85.49 157.019 L 85.376 153.796 L 85.336 84.853 L 55.963 129.22 Z" fill="#0081C6" style=""/>
    <path d="M 162.483 85.738 C 160.71 85.285 159.009 85.005 157.468 84.957 L 154.062 84.839 L 85.336 84.848 L 180.77 180.275 L 180.778 180.275 L 189.16 161.365 L 162.483 85.738" fill="#0079B3" style=""/>
    <path d="M 162.396 85.72 C 162.433 85.728 162.462 85.738 162.486 85.742 L 162.483 85.738 C 162.462 85.728 162.433 85.728 162.396 85.72 Z M 177.642 93.835 C 174.179 90.343 168.035 87.169 162.486 85.742 L 189.16 161.365 L 180.778 180.275 L 180.77 180.275 L 201.252 173.733 L 201.296 117.578 L 177.642 93.835 Z" fill="#00A4E4" style=""/>
    <path d="M 158.746 75.139 L 141.652 58.17 C 137.699 54.254 132.32 53.035 129.72 55.47 L 85.336 84.848 L 154.062 84.839 L 157.468 84.957 C 159.009 85.005 160.71 85.285 162.483 85.738 L 158.746 75.139 Z" fill="#00D2B8" style=""/>
  </g>
  <rect x="62.204" y="24.701" width="132.822" height="65.295" style="fill: rgb(255, 255, 255);"/>
  <path d="M 70.004 17.112 L 185.996 17.112 C 193.999 17.112 200.485 23.599 200.485 31.602 L 200.485 81.112 C 200.485 89.114 193.999 95.601 185.996 95.601 L 70.004 95.601 C 62.002 95.601 55.515 89.114 55.515 81.112 L 55.515 31.602 C 55.515 23.599 62.002 17.112 70.004 17.112 Z M 76.475 79.201 L 76.475 61.41 L 82.685 61.41 C 86.996 61.41 90.288 61.186 92.561 60.735 C 94.234 60.37 95.881 59.624 97.5 58.498 C 99.12 57.372 100.455 55.822 101.506 53.849 C 102.557 51.876 103.082 49.441 103.082 46.546 C 103.082 42.794 102.171 39.73 100.348 37.36 C 98.525 34.99 96.261 33.451 93.558 32.744 C 91.8 32.272 88.025 32.035 82.234 32.035 L 66.952 32.035 L 66.952 79.201 L 76.475 79.201 Z M 81.076 40.015 C 84.507 40.015 86.792 40.122 87.928 40.336 C 89.473 40.616 90.749 41.313 91.757 42.428 C 92.766 43.544 93.27 44.959 93.27 46.674 C 93.27 48.068 92.911 49.292 92.191 50.343 C 91.472 51.394 90.482 52.166 89.215 52.659 C 87.95 53.152 85.44 53.399 81.687 53.399 L 76.475 53.399 L 76.475 40.015 L 81.076 40.015 Z M 110.866 79.201 L 128.788 79.201 C 132.306 79.201 135.115 78.87 137.217 78.204 C 140.026 77.303 142.257 76.05 143.909 74.441 C 146.096 72.317 147.781 69.539 148.96 66.107 C 149.926 63.297 150.409 59.952 150.409 56.068 C 150.409 51.651 149.894 47.934 148.864 44.921 C 147.834 41.907 146.332 39.36 144.359 37.281 C 142.386 35.2 140.016 33.752 137.249 32.936 C 135.19 32.335 132.198 32.035 128.273 32.035 L 110.866 32.035 L 110.866 79.201 Z M 124.67 40.015 C 128.552 40.015 131.158 40.164 132.488 40.465 C 134.268 40.851 135.737 41.59 136.895 42.684 C 138.054 43.779 138.954 45.301 139.597 47.254 C 140.241 49.205 140.563 52.004 140.563 55.651 C 140.563 59.297 140.241 62.177 139.597 64.29 C 138.954 66.402 138.123 67.919 137.103 68.843 C 136.085 69.764 134.804 70.419 133.26 70.805 C 132.08 71.105 130.161 71.256 127.5 71.256 L 120.39 71.256 L 120.39 40.015 L 124.67 40.015 Z M 168.071 79.201 L 168.071 59.157 L 187.762 59.157 L 187.762 51.178 L 168.071 51.178 L 168.071 40.015 L 190.883 40.015 L 190.883 32.035 L 158.548 32.035 L 158.548 79.201 L 168.071 79.201 Z" style="fill: rgb(223, 3, 0);"/>
</svg>
