<?xml version="1.0" encoding="UTF-8"?>
<!DOCTYPE svg PUBLIC "-//W3C//DTD SVG 1.1//EN" "http://www.w3.org/Graphics/SVG/1.1/DTD/svg11.dtd">
<svg version="1.1" xmlns="http://www.w3.org/2000/svg" xmlns:xlink="http://www.w3.org/1999/xlink" x="0" y="0" width="197.782" height="55.623" viewBox="0, 0, 197.782, 55.623">
  <g id="Layer_1" transform="translate(-525.439, -128.094)">
    <path d="M542.547,138.283 L542.586,137.529 L542.348,137.529 L542.072,138.283 L538.908,147.459 L541.834,147.459 z M531.156,157.9 L541.715,128.828 L546.936,128.828 L545.156,157.9 L541.004,157.9 L541.44,151.967 L537.326,151.967 L535.309,157.9 z" fill="#1E427B"/>
    <path d="M564.654,128.828 L559.75,151.926 C559.433,153.113 558.959,154.182 558.367,155.09 C557.773,155.881 557.101,156.635 556.191,157.226 C555.242,157.9 554.095,158.217 552.711,158.217 C551.326,158.217 550.299,157.9 549.586,157.226 C548.914,156.635 548.558,155.881 548.4,155.09 C548.123,154.182 548.123,153.154 548.359,151.926 L553.263,128.828 L557.535,128.828 L552.631,151.926 C552.433,152.68 552.513,153.312 552.83,153.746 C552.988,153.945 553.224,154.062 553.58,154.062 C554.332,154.062 554.806,153.588 555.084,152.996 C555.203,152.758 555.361,152.4 555.478,151.926 L560.383,128.828 z" fill="#1E427B"/>
    <path d="M564.82,133.22 L565.769,128.827 L578.109,128.827 L577.16,133.22 L573.127,133.22 L567.906,157.9 L563.634,157.9 L568.855,133.22 z" fill="#1E427B"/>
    <path d="M584.94,134.802 C585.098,134.011 585.02,133.415 584.742,132.982 C584.585,132.782 584.307,132.665 583.952,132.665 C583.2,132.665 582.725,133.22 582.45,133.732 C582.292,134.048 582.172,134.406 582.091,134.802 L578.453,151.925 C578.255,152.679 578.336,153.312 578.653,153.745 C578.811,153.945 579.047,154.062 579.403,154.062 C580.155,154.062 580.629,153.587 580.906,152.995 C581.026,152.757 581.184,152.4 581.301,151.925 z M585.573,151.925 C585.255,153.113 584.781,154.181 584.19,155.089 C583.596,155.88 582.924,156.634 582.014,157.226 C581.065,157.9 579.919,158.216 578.534,158.216 C577.148,158.216 576.122,157.9 575.409,157.226 C574.737,156.634 574.38,155.88 574.223,155.089 C573.945,154.181 573.945,153.154 574.182,151.925 L577.82,134.802 C578.098,133.654 578.534,132.624 579.167,131.675 C579.76,130.884 580.393,130.093 581.301,129.501 C582.211,128.907 583.398,128.511 584.823,128.511 C586.247,128.511 587.234,128.907 587.906,129.501 C588.578,130.093 588.975,130.884 589.133,131.675 C589.411,132.546 589.411,133.573 589.211,134.802 z" fill="#1E427B"/>
    <path d="M599.031,136.621 C599.23,135.672 599.426,134.603 599.308,133.773 C599.189,132.982 598.873,132.43 598.201,132.43 C597.093,132.467 596.5,133.615 596.144,135.314 C595.945,136.305 596.103,137.334 596.541,138.441 C596.974,139.549 597.49,140.693 598.082,141.922 C598.834,143.383 599.426,144.887 599.9,146.351 C600.338,147.812 600.533,149.316 600.179,150.898 C599.742,152.838 599.109,154.615 597.885,156.002 C596.658,157.385 595.076,158.217 592.703,158.217 C589.974,158.217 588.631,157.187 588.115,155.605 C587.523,154.023 587.84,151.967 588.273,149.752 L592.545,149.357 C592.269,150.582 592.07,151.809 592.189,152.717 C592.306,153.666 592.623,154.299 593.535,154.299 C594.801,154.299 595.511,152.955 595.945,151.098 C596.144,150.148 595.945,149.041 595.511,147.892 C595.392,147.617 595.275,147.301 595.154,147.021 C595.037,146.746 594.918,146.43 594.801,146.152 C594.521,145.56 594.205,144.928 593.888,144.254 C593.572,143.582 593.256,142.908 592.939,142.158 C592.269,140.656 591.912,139.152 591.795,137.65 C591.674,136.896 591.795,136.105 591.953,135.314 C592.269,133.732 592.98,132.033 594.205,130.726 C595.353,129.461 596.935,128.553 598.951,128.512 C601.603,128.475 602.828,129.541 603.344,131.084 C603.818,132.666 603.66,134.603 603.302,136.226 z" fill="#1E427B"/>
    <path d="M609.065,141.922 C610.37,141.922 611.279,141.683 611.872,141.009 C612.503,140.376 612.82,139.31 613.177,137.687 C613.534,136.067 613.653,134.961 613.336,134.206 C613.02,133.536 612.229,133.179 610.922,133.179 z M607.599,128.827 L611.872,128.827 C613.732,128.827 615.473,129.265 616.617,130.648 C617.766,132.032 618.279,134.206 617.529,137.528 C616.776,140.851 615.393,142.987 613.692,144.372 C611.992,145.756 610.013,146.271 608.154,146.271 L605.702,157.9 L601.43,157.9 z" fill="#1E427B"/>
    <path d="M621.232,128.828 L631.002,128.828 L630.052,133.221 L624.554,133.221 L622.933,140.851 L626.888,140.851 L625.898,145.519 L621.943,145.519 L620.244,153.508 L625.74,153.508 L624.832,157.9 L615.062,157.9 z" fill="#1E427B"/>
    <path d="M633.322,128.828 L643.09,128.828 L642.14,133.221 L636.644,133.221 L635.021,140.851 L638.976,140.851 L637.99,145.519 L634.035,145.519 L632.332,153.508 L637.832,153.508 L636.92,157.9 L627.152,157.9 z" fill="#1E427B"/>
    <path d="M644.383,153.629 C645.848,153.629 646.717,153.47 647.467,152.047 C648.141,150.739 648.696,148.407 649.09,146.509 C649.287,145.597 649.487,144.53 649.762,143.345 C649.998,142.157 650.237,141.089 650.436,140.14 C650.83,138.282 651.305,136.067 651.147,134.644 C651.028,133.257 650.237,133.099 648.774,133.099 z M639.24,157.899 L645.41,128.827 L648.774,128.827 C652.729,128.827 654.627,129.618 655.377,131.834 C656.01,134.048 655.418,137.649 654.192,143.382 C652.967,149.077 652.055,152.679 650.473,154.894 C648.854,157.108 646.559,157.899 642.604,157.899 z" fill="#1E427B"/>
    <path d="M530.932,173.17 C531.024,172.707 531.123,172.19 531.063,171.78 C531.004,171.399 530.852,171.125 530.524,171.125 C529.983,171.144 529.692,171.7 529.522,172.532 C529.422,173.019 529.5,173.521 529.711,174.054 C529.926,174.601 530.174,175.161 530.465,175.754 C530.834,176.474 531.123,177.213 531.354,177.923 C531.569,178.636 531.662,179.37 531.491,180.142 C531.274,181.088 530.971,181.959 530.371,182.633 C529.768,183.308 528.998,183.716 527.84,183.716 C526.506,183.716 525.85,183.213 525.598,182.439 C525.309,181.668 525.461,180.657 525.676,179.586 L527.76,179.388 C527.629,179.985 527.53,180.588 527.59,181.032 C527.649,181.489 527.801,181.802 528.246,181.802 C528.862,181.802 529.211,181.146 529.422,180.235 C529.522,179.774 529.422,179.233 529.211,178.677 C529.153,178.538 529.094,178.386 529.037,178.245 C528.977,178.114 528.92,177.964 528.862,177.823 C528.725,177.534 528.573,177.23 528.42,176.898 C528.264,176.567 528.106,176.241 527.952,175.873 C527.629,175.144 527.455,174.407 527.395,173.67 C527.336,173.3 527.395,172.92 527.473,172.532 C527.629,171.759 527.971,170.927 528.573,170.293 C529.135,169.677 529.909,169.228 530.893,169.211 C532.184,169.187 532.786,169.714 533.034,170.468 C533.266,171.241 533.19,172.19 533.014,172.981 z" fill="#DD4044"/>
    <path d="M537.373,173.984 L537.391,173.616 L537.279,173.616 L537.141,173.984 L535.598,178.466 L537.027,178.466 z M531.809,183.558 L536.965,169.369 L539.518,169.369 L538.648,183.558 L536.619,183.558 L536.83,180.658 L534.82,180.658 L533.84,183.558 z" fill="#DD4044"/>
    <path d="M543.631,183.558 L544.194,174.642 L544.235,174.037 L544.115,174.037 L542.108,183.558 L540.174,183.558 L543.192,169.369 L545.736,169.369 L545.584,175.855 L545.526,176.605 L545.565,176.605 L545.817,175.855 L548.44,169.369 L550.99,169.369 L547.979,183.558 L546.047,183.558 L548.057,174.037 L547.944,174.037 L547.744,174.642 L544.52,183.558 z" fill="#DD4044"/>
    <path d="M553.283,169.369 L558.051,169.369 L557.594,171.508 L554.906,171.508 L554.115,175.238 L556.047,175.238 L555.566,177.517 L553.633,177.517 L552.803,181.42 L555.486,181.42 L555.039,183.558 L550.271,183.558 z" fill="#DD4044"/>
    <path d="M562.664,181.472 C563.383,181.472 563.805,181.396 564.174,180.699 C564.496,180.066 564.769,178.925 564.965,178.003 C565.059,177.554 565.156,177.033 565.287,176.452 C565.406,175.872 565.521,175.355 565.621,174.882 C565.814,173.984 566.045,172.902 565.967,172.208 C565.908,171.531 565.521,171.454 564.809,171.454 z M560.154,183.558 L563.17,169.368 L564.809,169.368 C566.738,169.368 567.668,169.755 568.035,170.831 C568.34,171.915 568.053,173.669 567.457,176.474 C566.857,179.257 566.412,181.011 565.639,182.095 C564.848,183.171 563.725,183.558 561.795,183.558 z" fill="#DD4044"/>
    <path d="M572.82,173.984 L572.838,173.616 L572.722,173.616 L572.584,173.984 L571.043,178.466 L572.472,178.466 z M567.257,183.558 L572.414,169.369 L574.965,169.369 L574.093,183.558 L572.068,183.558 L572.283,180.658 L570.267,180.658 L569.283,183.558 z" fill="#DD4044"/>
    <path d="M579.645,173.908 L579.666,174.037 L579.704,174.037 L579.803,173.908 L581.812,169.369 L583.858,169.369 L579.997,177.517 L578.723,183.558 L576.635,183.558 L577.911,177.517 L577.528,169.369 L579.573,169.369 z" fill="#DD4044"/>
    <path d="M590.693,173.984 L590.713,173.616 L590.595,173.616 L590.459,173.984 L588.918,178.466 L590.343,178.466 z M585.129,183.558 L590.283,169.369 L592.834,169.369 L591.964,183.558 L589.941,183.558 L590.152,180.658 L588.14,180.658 L587.154,183.558 z" fill="#DD4044"/>
    <path d="M601.986,169.369 L599.591,180.64 C599.437,181.226 599.203,181.748 598.92,182.187 C598.625,182.58 598.298,182.949 597.855,183.23 C597.39,183.558 596.83,183.717 596.154,183.717 C595.478,183.717 594.976,183.558 594.627,183.23 C594.298,182.949 594.127,182.58 594.047,182.187 C593.916,181.748 593.916,181.246 594.027,180.64 L596.427,169.369 L598.509,169.369 L596.115,180.64 C596.019,181.012 596.054,181.326 596.213,181.527 C596.289,181.631 596.408,181.685 596.578,181.685 C596.945,181.685 597.179,181.449 597.31,181.168 C597.369,181.051 597.449,180.877 597.502,180.64 L599.9,169.369 z" fill="#DD4044"/>
    <path d="M602.565,171.507 L603.034,169.368 L609.057,169.368 L608.591,171.507 L606.625,171.507 L604.075,183.558 L601.987,183.558 L604.539,171.507 z" fill="#DD4044"/>
    <path d="M612.889,172.287 C612.967,171.894 612.926,171.601 612.795,171.4 C612.715,171.297 612.584,171.242 612.41,171.242 C612.045,171.242 611.813,171.508 611.676,171.76 C611.598,171.916 611.541,172.088 611.5,172.287 L609.725,180.641 C609.625,181.012 609.664,181.326 609.819,181.527 C609.897,181.631 610.014,181.685 610.192,181.685 C610.553,181.685 610.789,181.449 610.922,181.168 C610.983,181.051 611.055,180.877 611.114,180.641 z M613.202,180.641 C613.047,181.226 612.815,181.748 612.526,182.187 C612.235,182.58 611.905,182.949 611.461,183.23 C611.002,183.558 610.436,183.717 609.762,183.717 C609.088,183.717 608.582,183.558 608.237,183.23 C607.91,182.949 607.733,182.58 607.66,182.187 C607.522,181.748 607.522,181.246 607.641,180.641 L609.414,172.287 C609.551,171.719 609.762,171.219 610.073,170.752 C610.364,170.371 610.67,169.978 611.114,169.697 C611.559,169.404 612.135,169.211 612.836,169.211 C613.528,169.211 614.01,169.404 614.338,169.697 C614.666,169.978 614.864,170.371 614.938,170.752 C615.077,171.18 615.077,171.682 614.977,172.287 z" fill="#DD4044"/>
    <path d="M621.674,175.754 C622.313,175.754 622.756,175.645 623.049,175.315 C623.356,175.004 623.506,174.484 623.682,173.693 C623.858,172.902 623.916,172.361 623.762,171.992 C623.606,171.664 623.225,171.49 622.584,171.49 z M620.963,169.369 L623.049,169.369 C623.955,169.369 624.807,169.58 625.362,170.254 C625.926,170.928 626.174,171.992 625.809,173.616 C625.44,175.238 624.766,176.281 623.936,176.955 C623.104,177.635 622.141,177.887 621.231,177.887 L620.033,183.559 L617.947,183.559 z" fill="#DD4044"/>
    <path d="M629.947,173.984 L629.967,173.616 L629.851,173.616 L629.711,173.984 L628.17,178.466 L629.597,178.466 z M624.384,183.558 L629.537,169.369 L632.09,169.369 L631.218,183.558 L629.195,183.558 L629.406,180.658 L627.396,180.658 L626.412,183.558 z" fill="#DD4044"/>
    <path d="M636.514,175.644 C636.809,175.644 637.192,175.621 637.561,175.331 C637.922,175.04 638.291,174.54 638.502,173.537 C638.713,172.533 638.582,172.009 638.332,171.718 C638.078,171.437 637.692,171.437 637.407,171.437 z M636.475,183.558 L636.651,177.572 L636.092,177.572 L634.836,183.558 L632.748,183.558 L635.764,169.369 L637.85,169.369 C640.336,169.369 641.094,170.751 640.532,173.458 C640.223,174.865 639.584,176.146 638.676,176.685 L638.563,183.558 z" fill="#DD4044"/>
    <path d="M641.734,171.507 L642.201,169.368 L648.226,169.368 L647.763,171.507 L645.795,171.507 L643.242,183.558 L641.16,183.558 L643.711,171.507 z" fill="#DD4044"/>
    <path d="M651.838,173.17 C651.93,172.707 652.029,172.19 651.971,171.78 C651.912,171.399 651.76,171.125 651.43,171.125 C650.889,171.144 650.6,171.7 650.428,172.532 C650.33,173.019 650.408,173.521 650.619,174.054 C650.832,174.601 651.08,175.161 651.369,175.754 C651.738,176.474 652.029,177.213 652.26,177.923 C652.475,178.636 652.57,179.37 652.397,180.142 C652.182,181.088 651.877,181.959 651.279,182.633 C650.674,183.308 649.904,183.716 648.748,183.716 C647.412,183.716 646.756,183.213 646.506,182.439 C646.217,181.668 646.367,180.657 646.582,179.586 L648.668,179.388 C648.537,179.985 648.438,180.588 648.496,181.032 C648.555,181.489 648.707,181.802 649.152,181.802 C649.768,181.802 650.119,181.146 650.33,180.235 C650.428,179.774 650.33,179.233 650.119,178.677 C650.059,178.538 650.002,178.386 649.943,178.245 C649.883,178.114 649.828,177.964 649.768,177.823 C649.629,177.534 649.479,177.23 649.328,176.898 C649.17,176.567 649.012,176.241 648.859,175.873 C648.537,175.144 648.361,174.407 648.301,173.67 C648.244,173.3 648.301,172.92 648.379,172.532 C648.537,171.759 648.879,170.927 649.479,170.293 C650.041,169.677 650.815,169.228 651.799,169.211 C653.09,169.187 653.69,169.714 653.942,170.468 C654.172,171.241 654.098,172.19 653.922,172.981 z" fill="#DD4044"/>
    <path d="M679.41,163.351 C679.41,164.228 680.121,164.933 680.992,164.933 L694.031,164.933 C694.902,164.933 695.613,164.228 695.613,163.351 C695.613,162.478 694.902,161.769 694.031,161.769 L680.992,161.769 C680.121,161.769 679.41,162.478 679.41,163.351" fill="#E21D34"/>
    <path d="M706.387,170.599 C709.498,170.593 712.018,168.078 712.03,164.956 C712.018,161.845 709.498,159.324 706.387,159.324 C703.268,159.324 700.75,161.845 700.744,164.956 C700.75,168.078 703.268,170.593 706.387,170.599 M697.58,164.956 L697.58,164.956 C697.58,160.099 701.52,156.16 706.387,156.16 C711.248,156.16 715.194,160.091 715.194,164.956 C715.194,169.82 711.248,173.763 706.387,173.763 C701.52,173.763 697.58,169.82 697.58,164.956" fill="#E21D34"/>
    <path d="M668.635,170.599 C671.752,170.593 674.272,168.078 674.278,164.956 C674.272,161.845 671.752,159.324 668.635,159.324 C665.524,159.324 663.004,161.845 662.996,164.956 C663.004,168.078 665.524,170.593 668.635,170.599 M659.832,164.956 L659.832,164.956 C659.832,160.091 663.778,156.16 668.635,156.16 C673.498,156.16 677.442,160.091 677.442,164.956 C677.442,169.82 673.498,173.763 668.635,173.763 C663.778,173.763 659.832,169.82 659.832,164.956" fill="#E21D34"/>
    <path d="M722.617,157.539 C722.26,156.805 721.785,156.056 721.189,155.301 C720.006,153.781 718.388,152.205 716.471,150.754 L694.517,134.143 C692.224,132.406 689.154,130.937 685.935,129.853 C682.715,128.775 679.379,128.096 676.5,128.094 L664.902,128.094 C663.875,128.09 662.873,128.424 662.142,129.107 C661.396,129.777 660.994,130.779 660.996,131.773 C660.996,132.246 661.08,132.719 661.234,133.176 L666.138,148.012 C666.199,148.174 666.215,148.305 666.215,148.408 C666.209,148.62 666.16,148.725 666.019,148.883 C665.879,149.035 665.596,149.217 665.154,149.312 C659.002,150.678 654.191,155.564 652.931,161.752 L529.599,161.752 C528.73,161.752 528.017,162.465 528.017,163.334 C528.017,164.219 528.73,164.926 529.599,164.926 L654.105,164.926 C654.976,165.019 655.758,164.398 655.855,163.527 C656.459,158.033 660.543,153.576 665.844,152.4 C666.789,152.195 667.652,151.76 668.312,151.07 C668.976,150.385 669.381,149.412 669.379,148.408 C669.379,147.945 669.299,147.471 669.144,147.014 L664.24,132.184 C664.181,132.01 664.16,131.875 664.16,131.773 C664.172,131.559 664.222,131.506 664.283,131.43 C664.357,131.365 664.515,131.26 664.902,131.258 L676.5,131.258 C678.871,131.254 681.971,131.851 684.924,132.853 C687.888,133.844 690.724,135.232 692.607,136.66 L714.566,153.271 C717.14,155.205 719.096,157.478 719.769,158.904 C719.992,159.361 720.062,159.719 720.056,159.816 L718.474,162.56 C718.041,163.316 718.297,164.283 719.056,164.721 C719.306,164.863 719.576,164.934 719.846,164.934 C720.392,164.934 720.92,164.652 721.215,164.143 L722.836,161.336 C723.121,160.844 723.221,160.31 723.221,159.828 C723.215,159.01 722.972,158.281 722.617,157.539" fill="#E21D34"/>
  </g>
</svg>
