<?xml version="1.0" encoding="UTF-8"?>
<svg version="1.1" viewBox="0 0 112.86 169.26" xmlns="http://www.w3.org/2000/svg">
<polygon points="87.429 163.55 87.429 85.111 23.453 85.134 23.43 163.55 55.429 142.24" fill="#ed5564"/>
<path d="m98.085 56.892c0 23.562-19.094 42.656-42.656 42.656s-42.663-19.094-42.663-42.656 19.102-42.663 42.663-42.663c23.562 0 42.656 19.1 42.656 42.663z" fill="#f6bb42"/>
<g transform="translate(-200.57 -183.11)" fill="#ffce54">
<path d="m256 293.34c-29.405 0-53.335-23.937-53.335-53.343s23.93-53.334 53.335-53.334c29.406 0 53.344 23.928 53.344 53.334s-23.938 53.343-53.344 53.343zm0-85.342c-17.647 0-31.999 14.351-31.999 31.999s14.352 32 31.999 32c17.656 0 32-14.352 32-32s-14.344-31.999-32-31.999z"/>
<circle cx="256" cy="240" r="10.664"/>
</g>
</svg>
