<?xml version="1.0" encoding="UTF-8"?>
<svg viewBox="-.965 153.8 328.07 69.047" xmlns="http://www.w3.org/2000/svg">
 <g fill="#ffe435" fill-rule="evenodd">
  <path d="m130.42 192.48c5.3472-7.5674 3.6727-18.679-0.89786-21.885-8.0631-5.8563-16.876 6.3663-12.837 18.527 4.0311 12.517 14.122 21.268 27.86 23.77 29.803 5.2656 88.754-27.178 126.14-37.106 27.773-7.375 44.738 3.707 53.892 15.981-18.815-13.327-35.963-8.692-53.611-5.4198-40.492 7.5078-82.376 39.384-126.76 34.37-20.721-3.0955-35.239-23.671-34.045-39.805 0.10605-1.4338 0.33619-2.8325 0.69714-4.1808 2.7276-9.5617 7.52-13.483 11.766-14.646 11.541-3.1619 22.973 17.872 7.7949 30.395z"/>
  <path d="m120.25 199.32c-8.213-7.289-16.686-18.602-24.247-23.606-79.487-52.616-120.23 18.467-79.465 38.895 6.2895 3.152 19.323 5.044 28.661-7.507-11.426 8.713-24.104 5.722-29.342 1.216-13.942-11.992-9.053-29.009 7.3432-36.78 25.826-9.861 49.152 0.688 69.564 15.316 14.578 8.736 18.32 12.813 30.067 18.151-6.674 0.27699-3.168-8.494-9.519-12.61l6.937 6.925z"/>
 </g>
</svg>
