<?xml version="1.0" encoding="UTF-8"?>
<svg viewBox="-195.92 -4.203 1099.5 283.9" xmlns="http://www.w3.org/2000/svg">
<g transform="matrix(-1 0 0 -1 708.01 276.82)" fill="#ffe435">
<path d="m332.63 121.08c0 6.241 3.577 16.041 11.139 25.843 0.9 1.345 1.796 2.231 3.119 3.572v6.686 1.783 6.239c-4.9-2.673-15.597-8.468-28.072-11.143 1.777 6.239-0.432 11.591-7.587 11.591-5.348 0-9.352-3.121-14.704-3.121-5.785 0-9.352 3.121-9.352 6.683 0 3.561 0.452 7.579 3.113 12.033-0.89 0-12.471-4.01-12.471-12.033 0-7.582 3.567-12.922 8.915-16.039-28.977 4.007-52.155 17.823-73.102 32.976 0.89 6.68 3.117 12.921 6.243 17.827 0.884-10.256 6.69-22.287 20.506-22.287 11.591 0 23.182 3.569 25.849 20.95-3.119-1.34-6.675-2.671-11.591-2.671-4.004 0-8.467 5.793-8.467 10.243 0 8.473 8.029 16.939 21.396 16.939 34.315 0 44.127-25.851 43.667-41.448h5.358c0 35.657-25.849 50.804-49.025 50.804-34.314 0-54.368-19.158-60.601-45.453-29.442 21.837-55.279 44.568-87.818 44.568-14.253 0-27.636-5.35-27.636-21.401 0-16.038 9.81-19.606 17.824-19.606 9.361 0 16.506 6.683 16.506 12.922 0 7.579-7.581 10.7-12.045 8.917 2.229-2.233 3.12-4.454 3.12-8.471 0-3.562-4.9-8.014-9.356-8.014-8.016 0-12.045 6.235-12.045 14.252 0 10.257 7.581 15.161 18.281 15.161 22.726 0 30.301-46.352 53.483-46.352 11.154 0 13.383 8.47 13.383 11.587 0 2.677-0.906 9.36-0.906 9.36 8.471-5.792 16.933-12.477 26.295-19.614-0.438-3.564-0.885-7.125-0.885-11.141 0-2.665 0-5.794 0.449-8.461-20.511 2.221-29.863-12.488-29.863-22.288 0-9.804 6.233-16.939 16.045-16.939 6.242 0 11.139 5.793 11.139 11.587 0 4.462-1.775 7.581-7.127 7.581-4.01 0-6.239-3.573-6.239-5.794 0-5.35 4.894-4.906 4.894-6.691-1.317-1.775-3.552-0.888-5.348-0.888-3.552 0-8.904 4.015-8.904 10.254 0 12.919 12.935 19.164 26.295 18.272 6.239-32.534 35.653-51.26 64.183-51.26 23.172 0 42.339 9.366 59.279 24.518-2.229-3.571-4.024-8.469-4.024-14.262 0-7.136 2.687-12.933 8.92-12.933 8.025 0 12.029 5.35 13.825 11.143-8.039-2.671-16.058-1.331-16.058 4.019zm-170.7 87.351c-4.897 0-10.701 8.469-17.372 17.837 4.462-2.233 15.595-8.025 21.375-12.931 0-2.233-0.432-4.906-4.003-4.906zm55.278-45.901c-2.686 5.792-4.009 11.59-4.009 16.483 14.71-10.245 30.743-20.501 49.478-27.186-14.71 2.675-32.107 7.137-45.469 10.703zm65.068-46.8c3.119 3.564 3.557 4.01 3.557 8.027 0 6.683-3.557 11.135-13.804 11.135-4.916 0-9.81-1.777-13.819-1.777-16.934 0-29.869 11.145-37.45 23.178 17.393-4.906 42.35-12.031 72.218-12.031-1.797-1.344-2.687-3.575-2.687-6.697 0-4.007 1.797-7.123 7.129-9.354-0.432 8.026 4.464 11.143 14.274 11.143 7.581 0 9.81 2.673 9.81 6.237l-0.904 2.677c9.372 2.673 19.626 6.234 24.078 8.025-21.399-25.407-41.906-40.119-62.402-40.563zm62.398-28.524c-0.9-3.563-3.566-11.589-8.03-11.589-10.242 0-19.604 7.133-29.848 7.133-7.581 0-17.397-5.792-17.397-14.26 0-3.575 2.687-5.792 6.242-6.248-0.438 1.34-0.89 2.673-0.89 4.015 0 2.676 1.775 4.908 4.464 4.908 8.898 0 16.048-6.694 24.952-6.694 2.665 0 5.354 0.898 8.016 1.786-5.349-4.015-12.91-8.023-19.601-9.357-22.291-3.57-51.253-15.603-48.134-38.781 0.885-7.573 7.129-11.132 12.477-10.246-2.665 2.231-5.348 4.008-5.348 7.581 0 12.922 16.485 13.368 25.843 13.368 9.81 0 30.321-2.231 30.321 13.375 0 5.341-4.462 9.358-9.352 10.245 13.361 6.683 26.723 15.604 29.848 31.201l-3.563 3.563zm243.35 148.42c-32.541 0-58.378-22.731-87.798-44.568-5.807 26.295-26.291 45.453-60.633 45.453-22.72 0-49.019-15.149-49.019-50.804h5.364c0 15.597 9.781 41.448 43.657 41.448 13.391 0 21.402-8.468 21.402-16.939 0-4.45-4.457-10.243-8.463-10.243-4.898 0-8.472 1.331-11.589 2.671 2.665-17.381 14.256-20.95 25.847-20.95 14.268 0 19.62 12.031 20.506 22.287 3.12-4.906 5.345-11.147 6.239-17.827-20.947-15.153-44.119-28.971-73.089-32.976 5.333 3.115 8.904 8.455 8.904 16.038 0 8.026-11.581 12.034-12.477 12.034 2.665-4.454 3.119-8.472 3.119-12.034 0-3.561-3.119-6.682-9.358-6.682-5.354 0-9.358 3.121-14.7 3.121-7.135 0-9.368-5.354-7.587-11.591-12.475 2.677-23.172 8.47-28.068 11.143v-6.239-1.783-6.686l3.55-3.572c7.575-9.802 10.704-19.602 10.704-25.843 0-5.35-8.017-6.69-16.05-4.017 1.796-5.793 5.798-11.143 13.817-11.143 6.239 0 8.914 5.796 8.914 12.933 0 5.793-1.781 10.691-4.004 14.262 17.376-15.152 36.09-24.518 59.261-24.518 28.988 0 57.945 18.726 64.195 51.26 13.362 0.89 26.291-5.355 26.291-18.272 0-6.239-4.9-10.254-8.904-10.254-1.802 0-4.025-0.889-5.354 0.888 0 1.787 4.9 1.341 4.9 6.691 0 2.221-1.781 5.794-6.239 5.794-5.354 0-7.134-3.119-7.134-7.581 0-5.792 4.9-11.587 11.138-11.587 9.81 0 16.049 7.133 16.049 16.939 0 9.8-9.358 24.509-29.863 22.288 0.443 2.665 0.443 5.794 0.443 8.461 0 4.016 0 7.577-0.443 11.141 8.926 7.139 17.818 13.822 25.859 19.614 0 0-0.886-6.683-0.886-9.36 0-3.115 2.665-11.587 13.363-11.587 23.182 0 30.757 46.352 53.477 46.352 10.694 0 18.283-4.904 18.283-15.161 0-8.017-4.025-14.252-12.045-14.252-4.457 0-9.358 4.452-9.358 8.014 0 4.017 0.897 6.238 3.12 8.471-4.458 1.785-12.033-1.338-12.033-8.917 0-6.239 7.575-12.922 16.502-12.922 8.008 0 17.818 3.568 17.818 19.606 2e-3 16.049-13.36 21.399-27.628 21.399zm-193.44-178.72c-6.691 1.334-14.256 5.342-19.601 9.357 2.666-0.888 5.345-1.786 8.01-1.786 8.923 0 16.058 6.694 24.952 6.694 3.13 0 4.466-2.23 4.466-4.908 0-1.342 0-2.675-0.896-4.015 3.583 0.456 6.25 2.673 6.25 6.248 0 8.468-9.358 14.26-17.387 14.26-10.254 0-19.168-7.133-29.862-7.133-4.458 0-7.123 8.026-8.01 11.589l-3.579-3.563c3.127-15.597 16.491-24.518 29.87-31.201-4.92-0.889-9.368-4.906-9.368-10.245 0-15.606 20.949-13.375 30.317-13.375 9.358 0 25.839-0.446 25.839-13.368 0-3.573-2.223-5.35-5.342-7.581 5.342-0.886 11.58 2.673 12.477 10.246 3.119 23.178-25.849 35.211-48.136 38.781zm54.374 76.215c-4.005 0-8.903 1.777-13.815 1.777-9.799 0-13.814-4.452-13.814-11.135 0-4.017 0.896-4.463 3.561-8.027-20.496 0.446-41.011 15.156-62.382 40.561 4.438-1.789 14.7-5.35 24.058-8.025l-0.886-2.677c0-3.564 2.213-6.237 9.79-6.237 9.808 0 14.708-3.117 14.278-11.143 5.354 2.231 7.123 5.349 7.123 9.354 0 3.122-0.885 5.353-2.675 6.697 29.862 0 54.817 7.125 72.644 12.031-8.021-12.031-20.948-23.176-37.882-23.176zm41 29.415c-13.362-3.564-30.739-8.028-45.448-10.701 18.714 6.683 34.763 16.939 49.473 27.186 0-4.895-1.346-10.693-4.025-16.485zm55.278 45.901c-3.571 0-4.003 2.673-4.003 4.906 5.774 4.906 16.933 10.698 21.371 12.931-6.671-9.368-12.475-17.837-17.368-17.837z"/>
<path d="m-77.49 247.08c-1.258-4.982-4.985-16.2-11.223-16.2-14.319 0-27.408 9.974-41.727 9.974-10.598 0-24.32-8.1-24.32-19.935 0-4.996 3.759-8.098 8.729-8.735-0.613 1.875-1.246 3.737-1.246 5.614 0 3.738 2.485 6.858 6.239 6.858 12.442 0 22.437-9.358 34.884-9.358 3.727 0 7.481 1.256 11.202 2.498-7.475-5.614-18.046-11.216-27.4-13.081-31.161-4.99-71.648-21.811-67.29-54.213 1.238-10.589 9.965-15.562 17.44-14.325-3.726 3.117-7.475 5.6-7.475 10.598 0 18.063 23.046 18.686 36.127 18.686 13.715 0 42.389-3.119 42.389 18.697 0 7.465-6.239 13.08-13.073 14.32 18.679 9.345 37.357 21.816 41.724 43.62l-4.98 4.982z"/>
<path d="m780.84 242.1c4.365-21.804 23.038-34.275 41.722-43.62-6.836-1.24-13.072-6.855-13.072-14.32 0-21.816 28.669-18.697 42.388-18.697 13.073 0 36.123-0.623 36.123-18.686 0-4.996-3.746-7.479-7.473-10.598 7.473-1.239 16.202 3.736 17.437 14.325 4.365 32.4-36.121 49.223-67.291 54.213-9.348 1.865-19.921 7.467-27.394 13.081 3.717-1.244 7.473-2.498 11.2-2.498 12.446 0 22.441 9.358 34.887 9.358 3.746 0 6.238-3.12 6.238-6.858 0-1.877-0.639-3.739-1.246-5.614 4.971 0.637 8.729 3.737 8.729 8.735 0 11.835-13.721 19.935-24.326 19.935-14.319 0-27.401-9.974-41.722-9.974-6.239 0-9.963 11.22-11.231 16.2l-4.969-4.982z"/>
<path d="m752.99 257.05c-13.556 9.939-35.782 22.949-109.33 15.541-20.064-1.989-39.952-5.059-60.191-8.131-12.652-1.807-25.477-3.436-38.314-4.7-9.038-0.904-31.808-3.255-40.302-2.349-8.862 0.904-12.29 3.979-12.477 5.604 0 0.36-0.175 1.087 0.187 1.447 0.187 1.083 0.906 1.808 0.906 2.529-0.187 1.63-4.344 3.253-8.133 2.894-2.532-0.181-5.064-1.809-4.889-3.979 0.362-1.983 6.691-9.759 21.875-11.926 12.29-1.624 26.383 0 74.643 4.699 59.992 5.966 100.31 6.144 130.85-4.153 22.409-7.414 56.39-26.568 59.633-53.862 3.078-24.394-18.427-36.142-36.502-37.95-37.408-3.617-75.001 29.278-77.895 52.415-1.627 12.829 9.398 19.877 21.144 20.962 12.477 1.266 22.596-3.793 31.448-10.299 15.906-11.748 17.718-20.247 18.25-24.22 0.547-4.155-0.174-7.589-2.162-10.118-1.635-1.989-2.893-2.17-5.063-2.351-0.906 0-2.347-0.185-2.172-1.63 0.187-1.987 2.172-1.806 2.903-1.627 5.962 0.541 13.549 7.77 12.096 19.697-2.522 19.702-27.464 36.508-54.219 33.797-21.865-2.168-31.799-18.252-29.812-33.613 3.253-26.749 42.289-52.776 79.697-48.981 33.621 3.255 56.217 30.185 52.592 60.545-2.174 17.169-11.563 30-24.758 39.759z"/>
<path d="m-68.238 219.91c-3.619-30.36 18.971-57.292 52.597-60.545 37.409-3.795 76.444 22.23 79.703 48.98 1.981 15.362-7.958 31.446-29.821 33.614-26.755 2.711-51.692-14.097-54.219-33.797-1.451-11.927 6.14-19.158 12.101-19.697 0.732-0.181 2.717-0.36 2.898 1.628 0.18 1.442-1.262 1.629-2.168 1.629-2.172 0.181-3.434 0.362-5.066 2.347-1.987 2.529-2.706 5.965-2.162 10.118 0.535 3.977 2.341 12.474 18.25 24.224 8.853 6.504 18.972 11.561 31.445 10.299 11.746-1.087 22.775-8.135 21.143-20.964-2.893-23.133-40.486-56.028-77.894-52.415-18.077 1.808-39.576 13.556-36.502 37.954 3.247 27.29 37.223 46.448 59.638 53.858 30.543 10.299 70.848 10.119 130.85 4.157 48.26-4.699 62.351-6.325 74.644-4.699 15.18 2.169 21.509 9.941 21.868 11.928 0.181 2.17-2.35 3.8-4.884 3.979-3.793 0.359-7.947-1.268-8.133-2.896 0-0.721 0.721-1.442 0.906-2.529 0.361-0.36 0.185-1.083 0.185-1.443-0.185-1.627-3.619-4.7-12.476-5.606-8.493-0.904-31.268 1.445-40.301 2.349-12.837 1.266-25.664 2.895-38.315 4.7-20.237 3.074-40.126 6.144-60.184 8.135-73.557 7.41-95.787-5.606-109.34-15.543-13.19-9.759-22.589-22.594-24.761-39.765z"/>
</g>
</svg>
